<?xml version="1.0" standalone="no"?>
<!DOCTYPE svg PUBLIC "-//W3C//DTD SVG 20010904//EN"
 "http://www.w3.org/TR/2001/REC-SVG-20010904/DTD/svg10.dtd">
<svg version="1.0" xmlns="http://www.w3.org/2000/svg"
 width="1024.000000pt" height="1024.000000pt" viewBox="0 0 1024.000000 1024.000000"
 preserveAspectRatio="xMidYMid meet">

<g transform="translate(0.000000,1024.000000) scale(0.100000,-0.100000)"
fill="#000000" stroke="none">
<path d="M5001 8944 c-169 -45 -301 -180 -346 -351 -13 -49 -15 -256 -15
-1525 l0 -1468 -1468 0 c-1286 0 -1475 -2 -1527 -15 -256 -67 -415 -329 -350
-580 45 -172 179 -305 352 -350 49 -13 256 -15 1525 -15 l1468 0 0 -1468 c0
-1286 2 -1475 15 -1527 67 -256 329 -415 578 -350 173 45 307 178 352 350 13
52 15 241 15 1527 l0 1468 1468 0 c1286 0 1475 2 1527 15 256 67 415 329 350
580 -45 172 -179 305 -352 350 -49 13 -256 15 -1525 15 l-1468 0 0 1468 c0
1269 -2 1476 -15 1525 -67 259 -333 419 -584 351z"/>
</g>
</svg>
